/* XPM */
static char *sword_xpm[] = {
"24 48 3 1",  /* Largeur: 24px, Hauteur: 48px, 3 couleurs, 1 char par pixel */
"  c 0x000000",   /* Fond transparent */
". c #C0C0C0", /* Lame argentée */
"X c #804000", /* Manche marron */
"                        ",
"                        ",
"            .           ",
"            .           ",
"            .           ",
"            .           ",
"            .           ",
"            .           ",
"            .           ",
"            .           ",
"           ...          ",
"           ...          ",
"           ...          ",
"           ...          ",
"          .....         ",
"          .....         ",
"          .....         ",
"          .....         ",
"          .....         ",
"          .....         ",
"          .....         ",
"         .......        ",
"         .......        ",
"         .......        ",
"         .......        ",
"         .......        ",
"         .......        ",
"         .......        ",
"         .......        ",
"        .........       ",
"        .........       ",
"        .........       ",
"        .........       ",
"        .........       ",
"     XXXXXXXXXXXXXXX    ",
"     XXXXXXXXXXXXXXX    ",
"     XXXX.......XXXX    ",
"      XXX.......XXX     ",
"      XXX.......XXX     ",
"       XX.......XX      ",
"       XX.......XX      ",
"        X.......X       ",
"        X.......X       ",
"        XXXXXXXXX       ",
"        XXXXXXXXX       ",
"        XXXXXXXXX       ",
"        XXXXXXXXX       ",
"        XXXXXXXXX       ",
"                        "
};
